<svg xmlns="http://www.w3.org/2000/svg" width="108" height="108" viewBox="0 0 108 108" fill="none">
  <rect x="0.852539" y="1.48779" width="106" height="106" rx="53" fill="#D9D9D9" stroke="black"/>
  <path d="M49.1955 96.3101L53.1007 100.113L57.0059 96.3101" stroke="black" stroke-width="1.31106" stroke-linecap="round" stroke-linejoin="round"/>
  <path d="M53.1006 91.5562V100.113" stroke="black" stroke-width="1.31106" stroke-linecap="round" stroke-linejoin="round"/>
  <path d="M61.7703 97.346C62.6191 96.7648 63.2557 95.9352 63.5875 94.9778C63.9194 94.0204 63.9294 92.9848 63.616 92.0215C63.3025 91.0582 62.6821 90.2172 61.8446 89.6206C61.0071 89.0239 59.9962 88.7027 58.9586 88.7035H57.7284C57.4348 87.5891 56.8854 86.554 56.1215 85.6763C55.3577 84.7986 54.3993 84.1011 53.3186 83.6362C52.2379 83.1714 51.063 82.9514 49.8823 82.9927C48.7017 83.0341 47.546 83.3357 46.5024 83.8749C45.4587 84.4142 44.5543 85.1769 43.8572 86.1058C43.1601 87.0347 42.6884 88.1055 42.4777 89.2376C42.267 90.3697 42.3228 91.5336 42.6409 92.6416C42.9589 93.7497 43.531 94.773 44.3139 95.6346" stroke="black" stroke-width="1.31106" stroke-linecap="round" stroke-linejoin="round"/>
  <path d="M65.795 68.5745V65.5093C65.795 63.8834 65.1512 62.3241 64.0052 61.1744C62.8593 60.0248 61.305 59.3789 59.6844 59.3789H47.4632C45.8425 59.3789 44.2883 60.0248 43.1423 61.1744C41.9963 62.3241 41.3525 63.8834 41.3525 65.5093V68.5745" stroke="black" stroke-linecap="round" stroke-linejoin="round"/>
  <path d="M53.5737 53.2485C56.9485 53.2485 59.6844 50.5039 59.6844 47.1182C59.6844 43.7325 56.9485 40.9878 53.5737 40.9878C50.1989 40.9878 47.4631 43.7325 47.4631 47.1182C47.4631 50.5039 50.1989 53.2485 53.5737 53.2485Z" stroke="black" stroke-linecap="round" stroke-linejoin="round"/>
</svg>