<svg width="218" height="27" viewBox="0 0 218 27" fill="none" xmlns="http://www.w3.org/2000/svg">
<g id="FashionIconix">
<g id="FashionIconix_2">
<path d="M17.9187 2.51005C17.8294 3.52764 17.7624 4.51131 17.7178 5.46106C17.6954 6.4108 17.6843 7.14573 17.6843 7.66583C17.6843 8.16332 17.6954 8.63819 17.7178 9.09045C17.7401 9.54272 17.7624 9.92714 17.7847 10.2437H17.0144C16.7241 8.4799 16.3222 7.1005 15.8087 6.10553C15.2951 5.08794 14.6587 4.36432 13.8996 3.93468C13.1627 3.50503 12.2807 3.2902 11.2536 3.2902H10.1484C9.50083 3.2902 9.0096 3.34673 8.67467 3.4598C8.33974 3.57287 8.11645 3.799 8.00481 4.13819C7.89317 4.47739 7.83735 4.99749 7.83735 5.69849V22.7261C7.83735 23.608 7.92666 24.2638 8.10529 24.6935C8.28392 25.1231 8.63001 25.4058 9.14357 25.5415C9.65713 25.6771 10.4163 25.7563 11.4211 25.7789V26.5251C10.7289 26.5025 9.83576 26.4799 8.74166 26.4573C7.64755 26.4347 6.49763 26.4234 5.29188 26.4234C4.33175 26.4234 3.39395 26.4347 2.47848 26.4573C1.563 26.4799 0.736845 26.5025 0 26.5251V25.8467C0.714516 25.8015 1.2504 25.7111 1.60766 25.5754C1.96492 25.4397 2.19937 25.1683 2.31101 24.7613C2.44498 24.3543 2.51197 23.7437 2.51197 22.9296V6.10553C2.51197 5.26884 2.44498 4.65829 2.31101 4.27387C2.19937 3.86684 1.95375 3.59548 1.57417 3.4598C1.21691 3.30151 0.692187 3.21106 0 3.18844V2.51005C0.915473 2.53267 1.88677 2.55528 2.91389 2.57789C3.941 2.57789 4.95695 2.5892 5.96174 2.61181C6.96653 2.61181 7.90433 2.61181 8.77515 2.61181C9.64596 2.61181 10.3605 2.61181 10.9187 2.61181C11.9458 2.61181 13.1069 2.61181 14.402 2.61181C15.7193 2.5892 16.8916 2.55528 17.9187 2.51005ZM12.9283 14.2462C12.9283 14.2462 12.9283 14.3593 12.9283 14.5854C12.9283 14.8116 12.9283 14.9246 12.9283 14.9246H6.83256C6.83256 14.9246 6.83256 14.8116 6.83256 14.5854C6.83256 14.3593 6.83256 14.2462 6.83256 14.2462H12.9283ZM13.7656 9.76885C13.6763 11.0578 13.6316 12.0415 13.6316 12.7199C13.654 13.3982 13.6651 14.0201 13.6651 14.5854C13.6651 15.1508 13.6763 15.7726 13.6986 16.451C13.7209 17.1294 13.7768 18.1131 13.8661 19.402H13.0957C12.9618 18.6106 12.7496 17.8756 12.4594 17.1972C12.1691 16.5188 11.7449 15.9761 11.1866 15.5691C10.6284 15.1394 9.90274 14.9246 9.0096 14.9246V14.2462C9.67946 14.2462 10.2377 14.1106 10.6842 13.8392C11.1531 13.5452 11.5439 13.1721 11.8565 12.7199C12.1691 12.245 12.4147 11.7475 12.5933 11.2274C12.772 10.7073 12.9059 10.2211 12.9953 9.76885H13.7656Z" fill="white"/>
<path d="M23.5521 26.7626C22.5473 26.7626 21.71 26.5704 21.0401 26.1859C20.3702 25.8015 19.879 25.2927 19.5664 24.6595C19.2538 24.0038 19.0975 23.2915 19.0975 22.5226C19.0975 21.5503 19.3096 20.7588 19.7339 20.1482C20.1805 19.5377 20.7498 19.0402 21.442 18.6558C22.1342 18.2714 22.8599 17.9548 23.6191 17.706C24.4006 17.4573 25.1374 17.2199 25.8296 16.9937C26.5441 16.745 27.1135 16.4623 27.5377 16.1457C27.9843 15.8065 28.2076 15.3769 28.2076 14.8568V12.2111C28.2076 11.6231 28.1071 11.103 27.9062 10.6508C27.7275 10.1759 27.4373 9.81407 27.0353 9.56533C26.6558 9.31658 26.1534 9.19221 25.5282 9.19221C25.0816 9.19221 24.635 9.26005 24.1884 9.39573C23.7419 9.5088 23.3734 9.71231 23.0832 10.0063C23.7084 10.2324 24.1884 10.5829 24.5234 11.0578C24.8806 11.5101 25.0593 12.0302 25.0593 12.6181C25.0593 13.3869 24.7913 13.9975 24.2554 14.4498C23.7419 14.902 23.1278 15.1281 22.4133 15.1281C21.6095 15.1281 20.9954 14.8794 20.5712 14.3819C20.1693 13.8618 19.9683 13.24 19.9683 12.5163C19.9683 11.8606 20.1246 11.3178 20.4372 10.8882C20.7722 10.4585 21.2299 10.0515 21.8104 9.66709C22.4356 9.30528 23.1837 9.02261 24.0545 8.8191C24.9476 8.61558 25.9077 8.51382 26.9349 8.51382C27.962 8.51382 28.8886 8.62689 29.7148 8.85302C30.5409 9.05653 31.2331 9.44096 31.7913 10.0063C32.3049 10.5264 32.6398 11.1709 32.7961 11.9397C32.9524 12.6859 33.0306 13.6357 33.0306 14.7889V24.0151C33.0306 24.5804 33.0864 24.9761 33.198 25.2023C33.3097 25.4058 33.4995 25.5075 33.7674 25.5075C33.9684 25.5075 34.1582 25.451 34.3368 25.3379C34.5378 25.2249 34.7499 25.0892 34.9732 24.9309L35.3081 25.5075C34.8392 25.9146 34.2921 26.2312 33.6669 26.4573C33.0641 26.6608 32.383 26.7626 31.6239 26.7626C30.7977 26.7626 30.139 26.6495 29.6478 26.4234C29.1566 26.1746 28.7993 25.8467 28.576 25.4397C28.3751 25.0327 28.2746 24.5578 28.2746 24.0151C27.7387 24.8744 27.0912 25.5528 26.332 26.0503C25.5728 26.5251 24.6462 26.7626 23.5521 26.7626ZM25.9301 24.5917C26.3766 24.5917 26.7786 24.49 27.1358 24.2864C27.5154 24.0603 27.8727 23.6985 28.2076 23.201V16.2475C28.0066 16.5867 27.7275 16.892 27.3703 17.1633C27.013 17.4347 26.6334 17.7173 26.2315 18.0113C25.8296 18.2827 25.4388 18.5879 25.0593 18.9271C24.702 19.2663 24.4117 19.6847 24.1884 20.1822C23.9652 20.6797 23.8535 21.2789 23.8535 21.9799C23.8535 22.8618 24.0433 23.5176 24.4229 23.9472C24.8025 24.3769 25.3049 24.5917 25.9301 24.5917Z" fill="white"/>
<path d="M42.8969 8.51382C43.8347 8.51382 44.6497 8.63819 45.3418 8.88694C46.0564 9.11307 46.5699 9.3392 46.8825 9.56533C47.6417 10.0854 48.1106 9.74623 48.2892 8.54774H48.9926C48.9479 9.1809 48.9144 9.96106 48.8921 10.8882C48.8698 11.7927 48.8586 13.0025 48.8586 14.5176H48.1552C48.0436 13.6809 47.8315 12.8555 47.5189 12.0415C47.2063 11.2274 46.7485 10.5603 46.1457 10.0402C45.5651 9.5201 44.806 9.26005 43.8682 9.26005C43.2206 9.26005 42.6736 9.45226 42.227 9.83668C41.7804 10.1985 41.5571 10.7299 41.5571 11.4309C41.5571 12.1093 41.7581 12.7085 42.16 13.2286C42.5619 13.7261 43.0755 14.2123 43.7007 14.6872C44.3482 15.1394 45.0181 15.6256 45.7103 16.1457C46.4471 16.7111 47.117 17.2764 47.7198 17.8417C48.3227 18.3844 48.8028 18.9837 49.16 19.6394C49.5173 20.2952 49.6959 21.0754 49.6959 21.9799C49.6959 22.9975 49.4057 23.8907 48.8251 24.6595C48.2446 25.4058 47.4742 25.9824 46.5141 26.3894C45.5763 26.7965 44.5268 27 43.3658 27C42.6959 27 42.093 26.9322 41.5571 26.7965C41.0436 26.6608 40.597 26.4912 40.2174 26.2877C39.9272 26.152 39.648 26.0276 39.3801 25.9146C39.1345 25.7789 38.9 25.6658 38.6767 25.5754C38.4535 25.5075 38.2525 25.5867 38.0739 25.8128C37.9176 26.0389 37.7948 26.3555 37.7055 26.7626H37.0021C37.0468 26.0389 37.0803 25.157 37.1026 24.1168C37.1249 23.0766 37.1361 21.6972 37.1361 19.9786H37.8394C37.9734 21.1997 38.219 22.2852 38.5763 23.2349C38.9335 24.1621 39.4136 24.897 40.0165 25.4397C40.6417 25.9598 41.4232 26.2198 42.361 26.2198C42.7406 26.2198 43.109 26.1407 43.4662 25.9824C43.8235 25.8241 44.1138 25.5641 44.3371 25.2023C44.5827 24.8405 44.7055 24.3769 44.7055 23.8116C44.7055 22.8166 44.3817 21.9912 43.7342 21.3354C43.109 20.6796 42.3051 19.9673 41.3227 19.1985C40.6082 18.6106 39.9272 18.0339 39.2796 17.4686C38.6544 16.8807 38.1409 16.2475 37.7389 15.5691C37.337 14.8681 37.1361 14.0766 37.1361 13.1947C37.1361 12.1771 37.404 11.3178 37.9399 10.6168C38.4758 9.91583 39.1791 9.39573 40.05 9.05653C40.9431 8.69472 41.8921 8.51382 42.8969 8.51382Z" fill="white"/>
<path d="M58.5352 0V11.6683C59.0934 10.4925 59.8414 9.67839 60.7792 9.22613C61.7393 8.75126 62.8111 8.51382 63.9945 8.51382C64.9547 8.51382 65.725 8.63819 66.3055 8.88694C66.8861 9.11307 67.3438 9.42965 67.6788 9.83668C68.0583 10.2663 68.3263 10.8204 68.4826 11.4987C68.6612 12.1771 68.7505 13.093 68.7505 14.2462V23.3706C68.7505 24.3204 68.9068 24.9648 69.2194 25.304C69.5544 25.6432 70.1126 25.8128 70.8941 25.8128V26.5251C70.4698 26.5025 69.8223 26.4799 68.9515 26.4573C68.103 26.4121 67.2768 26.3894 66.473 26.3894C65.6022 26.3894 64.7537 26.4121 63.9275 26.4573C63.1237 26.4799 62.5208 26.5025 62.1189 26.5251V25.8128C62.7888 25.8128 63.2577 25.6432 63.5256 25.304C63.7936 24.9648 63.9275 24.3204 63.9275 23.3706V12.8216C63.9275 12.2563 63.8717 11.7701 63.7601 11.3631C63.6484 10.9334 63.4363 10.6055 63.1237 10.3794C62.8334 10.1307 62.4092 10.0063 61.851 10.0063C61.2481 10.0063 60.6899 10.1759 60.1763 10.5151C59.6851 10.8317 59.2832 11.2839 58.9706 11.8719C58.6803 12.4598 58.5352 13.1382 58.5352 13.907V23.3706C58.5352 24.3204 58.6691 24.9648 58.9371 25.304C59.205 25.6432 59.6739 25.8128 60.3438 25.8128V26.5251C59.9419 26.5025 59.3502 26.4799 58.5687 26.4573C57.7872 26.4121 56.9945 26.3894 56.1907 26.3894C55.3199 26.3894 54.4379 26.4121 53.5447 26.4573C52.6739 26.4799 52.0152 26.5025 51.5686 26.5251V25.8128C52.3502 25.8128 52.8972 25.6432 53.2098 25.304C53.5447 24.9648 53.7122 24.3204 53.7122 23.3706V4.07035C53.7122 3.05276 53.5559 2.30653 53.2433 1.83166C52.953 1.33417 52.3948 1.08543 51.5686 1.08543V0.373117C52.2832 0.440956 52.9754 0.474876 53.6452 0.474876C54.5607 0.474876 55.4315 0.440956 56.2577 0.373117C57.0838 0.282664 57.843 0.158292 58.5352 0Z" fill="white"/>
<path d="M76.4672 0.237438C77.405 0.237438 78.1419 0.474876 78.6778 0.949751C79.236 1.40201 79.5151 2.03518 79.5151 2.84925C79.5151 3.66332 79.236 4.30779 78.6778 4.78266C78.1419 5.23493 77.405 5.46106 76.4672 5.46106C75.5294 5.46106 74.7814 5.23493 74.2232 4.78266C73.6873 4.30779 73.4194 3.66332 73.4194 2.84925C73.4194 2.03518 73.6873 1.40201 74.2232 0.949751C74.7814 0.474876 75.5294 0.237438 76.4672 0.237438ZM79.0797 8.61558V23.3706C79.0797 24.3204 79.236 24.9648 79.5486 25.304C79.8835 25.6432 80.4417 25.8128 81.2232 25.8128V26.5251C80.8213 26.5025 80.1961 26.4799 79.3476 26.4573C78.4991 26.4121 77.6395 26.3894 76.7687 26.3894C75.8979 26.3894 75.0159 26.4121 74.1227 26.4573C73.2296 26.4799 72.5597 26.5025 72.1132 26.5251V25.8128C72.8947 25.8128 73.4417 25.6432 73.7543 25.304C74.0892 24.9648 74.2567 24.3204 74.2567 23.3706V12.6859C74.2567 11.6683 74.1004 10.9221 73.7878 10.4472C73.4975 9.94975 72.9393 9.70101 72.1132 9.70101V8.98869C72.8277 9.05653 73.5199 9.09045 74.1897 9.09045C75.1275 9.09045 75.9983 9.05653 76.8022 8.98869C77.6283 8.89824 78.3875 8.77387 79.0797 8.61558Z" fill="white"/>
<path d="M91.319 8.51382C92.949 8.51382 94.378 8.8191 95.6061 9.42965C96.8342 10.0402 97.7943 11.0239 98.4865 12.3807C99.1787 13.7374 99.5248 15.5352 99.5248 17.7739C99.5248 20.0126 99.1787 21.8103 98.4865 23.1671C97.7943 24.5013 96.8342 25.4736 95.6061 26.0842C94.378 26.6947 92.949 27 91.319 27C89.7337 27 88.3158 26.6947 87.0654 26.0842C85.8373 25.4736 84.866 24.5013 84.1515 23.1671C83.4593 21.8103 83.1132 20.0126 83.1132 17.7739C83.1132 15.5352 83.4593 13.7374 84.1515 12.3807C84.866 11.0239 85.8373 10.0402 87.0654 9.42965C88.3158 8.8191 89.7337 8.51382 91.319 8.51382ZM91.319 9.19221C90.4259 9.19221 89.6779 9.8706 89.075 11.2274C88.4721 12.5616 88.1707 14.7437 88.1707 17.7739C88.1707 20.804 88.4721 22.9862 89.075 24.3204C89.6779 25.6545 90.4259 26.3216 91.319 26.3216C92.2345 26.3216 92.9825 25.6545 93.563 24.3204C94.1659 22.9862 94.4673 20.804 94.4673 17.7739C94.4673 14.7437 94.1659 12.5616 93.563 11.2274C92.9825 9.8706 92.2345 9.19221 91.319 9.19221Z" fill="white"/>
<path d="M114.075 8.51382C115.013 8.51382 115.772 8.63819 116.353 8.88694C116.955 9.11307 117.424 9.42965 117.759 9.83668C118.117 10.2663 118.373 10.8204 118.53 11.4987C118.708 12.1771 118.798 13.093 118.798 14.2462V23.3706C118.798 24.3204 118.954 24.9648 119.267 25.304C119.601 25.6432 120.16 25.8128 120.941 25.8128V26.5251C120.517 26.5025 119.881 26.4799 119.032 26.4573C118.184 26.4121 117.346 26.3894 116.52 26.3894C115.672 26.3894 114.834 26.4121 114.008 26.4573C113.204 26.4799 112.59 26.5025 112.166 26.5251V25.8128C112.836 25.8128 113.305 25.6432 113.573 25.304C113.841 24.9648 113.975 24.3204 113.975 23.3706V12.8216C113.975 12.2563 113.919 11.7701 113.807 11.3631C113.696 10.9334 113.495 10.6055 113.204 10.3794C112.914 10.1307 112.479 10.0063 111.898 10.0063C111.295 10.0063 110.737 10.1759 110.223 10.5151C109.732 10.8543 109.33 11.3291 109.018 11.9397C108.727 12.5276 108.582 13.1947 108.582 13.941V23.3706C108.582 24.3204 108.716 24.9648 108.984 25.304C109.274 25.6432 109.743 25.8128 110.391 25.8128V26.5251C109.989 26.5025 109.397 26.4799 108.616 26.4573C107.857 26.4121 107.064 26.3894 106.238 26.3894C105.389 26.3894 104.518 26.4121 103.625 26.4573C102.732 26.4799 102.062 26.5025 101.616 26.5251V25.8128C102.397 25.8128 102.944 25.6432 103.257 25.304C103.592 24.9648 103.759 24.3204 103.759 23.3706V12.6859C103.759 11.6683 103.603 10.9221 103.29 10.4472C103 9.94975 102.442 9.70101 101.616 9.70101V8.98869C102.33 9.05653 103.022 9.09045 103.692 9.09045C104.63 9.09045 105.501 9.05653 106.305 8.98869C107.131 8.89824 107.89 8.77387 108.582 8.61558V11.6683C109.14 10.5151 109.9 9.70101 110.86 9.22613C111.82 8.75126 112.892 8.51382 114.075 8.51382Z" fill="white"/>
<path d="M132.873 2.51005V3.18844C132.159 3.21106 131.612 3.30151 131.232 3.4598C130.875 3.59548 130.64 3.86684 130.529 4.27387C130.417 4.65829 130.361 5.26884 130.361 6.10553V22.9296C130.361 23.7437 130.417 24.3543 130.529 24.7613C130.663 25.1683 130.908 25.4397 131.266 25.5754C131.623 25.7111 132.159 25.8015 132.873 25.8467V26.5251C132.27 26.4799 131.511 26.4573 130.596 26.4573C129.68 26.4347 128.754 26.4234 127.816 26.4234C126.722 26.4234 125.706 26.4347 124.768 26.4573C123.853 26.4573 123.104 26.4799 122.524 26.5251V25.8467C123.238 25.8015 123.774 25.7111 124.132 25.5754C124.489 25.4397 124.723 25.1683 124.835 24.7613C124.969 24.3543 125.036 23.7437 125.036 22.9296V6.10553C125.036 5.26884 124.969 4.65829 124.835 4.27387C124.723 3.86684 124.478 3.59548 124.098 3.4598C123.741 3.30151 123.216 3.21106 122.524 3.18844V2.51005C123.104 2.53267 123.853 2.55528 124.768 2.57789C125.706 2.6005 126.722 2.61181 127.816 2.61181C128.754 2.61181 129.68 2.6005 130.596 2.57789C131.511 2.55528 132.27 2.53267 132.873 2.51005Z" fill="white"/>
<path d="M142.868 8.51382C143.739 8.51382 144.532 8.61558 145.246 8.8191C145.983 9 146.586 9.23744 147.055 9.53141C147.635 9.89322 148.082 10.3455 148.395 10.8882C148.73 11.4083 148.897 12.0188 148.897 12.7199C148.897 13.5113 148.651 14.1671 148.16 14.6872C147.669 15.1847 147.033 15.4334 146.251 15.4334C145.47 15.4334 144.844 15.2073 144.375 14.755C143.907 14.3028 143.672 13.6922 143.672 12.9234C143.672 12.1998 143.895 11.6005 144.342 11.1256C144.789 10.6281 145.302 10.3003 145.883 10.142C145.704 9.91583 145.436 9.72362 145.079 9.56533C144.722 9.40704 144.32 9.32789 143.873 9.32789C143.181 9.32789 142.567 9.53141 142.031 9.93844C141.517 10.3455 141.082 10.9108 140.725 11.6344C140.367 12.358 140.088 13.206 139.887 14.1784C139.709 15.1508 139.619 16.2136 139.619 17.3668C139.619 19.108 139.832 20.4761 140.256 21.4711C140.702 22.4661 141.261 23.1671 141.93 23.5741C142.623 23.9812 143.337 24.1847 144.074 24.1847C144.498 24.1847 144.956 24.1168 145.447 23.9812C145.961 23.8455 146.474 23.5741 146.988 23.1671C147.524 22.7601 148.015 22.1834 148.462 21.4372L149.031 21.6407C148.785 22.4774 148.383 23.3141 147.825 24.1508C147.267 24.9874 146.541 25.6771 145.648 26.2198C144.755 26.7399 143.661 27 142.366 27C140.915 27 139.597 26.6834 138.414 26.0503C137.253 25.3945 136.315 24.3995 135.6 23.0653C134.908 21.7085 134.562 19.9673 134.562 17.8417C134.562 15.8065 134.919 14.0992 135.634 12.7199C136.371 11.3178 137.364 10.2663 138.615 9.56533C139.865 8.86432 141.283 8.51382 142.868 8.51382Z" fill="white"/>
<path d="M159.417 8.51382C161.047 8.51382 162.476 8.8191 163.704 9.42965C164.932 10.0402 165.892 11.0239 166.584 12.3807C167.277 13.7374 167.623 15.5352 167.623 17.7739C167.623 20.0126 167.277 21.8103 166.584 23.1671C165.892 24.5013 164.932 25.4736 163.704 26.0842C162.476 26.6947 161.047 27 159.417 27C157.832 27 156.414 26.6947 155.163 26.0842C153.935 25.4736 152.964 24.5013 152.249 23.1671C151.557 21.8103 151.211 20.0126 151.211 17.7739C151.211 15.5352 151.557 13.7374 152.249 12.3807C152.964 11.0239 153.935 10.0402 155.163 9.42965C156.414 8.8191 157.832 8.51382 159.417 8.51382ZM159.417 9.19221C158.524 9.19221 157.776 9.8706 157.173 11.2274C156.57 12.5616 156.269 14.7437 156.269 17.7739C156.269 20.804 156.57 22.9862 157.173 24.3204C157.776 25.6545 158.524 26.3216 159.417 26.3216C160.332 26.3216 161.08 25.6545 161.661 24.3204C162.264 22.9862 162.565 20.804 162.565 17.7739C162.565 14.7437 162.264 12.5616 161.661 11.2274C161.08 9.8706 160.332 9.19221 159.417 9.19221Z" fill="white"/>
<path d="M182.173 8.51382C183.111 8.51382 183.87 8.63819 184.451 8.88694C185.053 9.11307 185.522 9.42965 185.857 9.83668C186.215 10.2663 186.471 10.8204 186.628 11.4987C186.806 12.1771 186.896 13.093 186.896 14.2462V23.3706C186.896 24.3204 187.052 24.9648 187.364 25.304C187.699 25.6432 188.258 25.8128 189.039 25.8128V26.5251C188.615 26.5025 187.978 26.4799 187.13 26.4573C186.281 26.4121 185.444 26.3894 184.618 26.3894C183.77 26.3894 182.932 26.4121 182.106 26.4573C181.302 26.4799 180.688 26.5025 180.264 26.5251V25.8128C180.934 25.8128 181.403 25.6432 181.671 25.304C181.939 24.9648 182.073 24.3204 182.073 23.3706V12.8216C182.073 12.2563 182.017 11.7701 181.905 11.3631C181.793 10.9334 181.592 10.6055 181.302 10.3794C181.012 10.1307 180.577 10.0063 179.996 10.0063C179.393 10.0063 178.835 10.1759 178.321 10.5151C177.83 10.8543 177.428 11.3291 177.116 11.9397C176.825 12.5276 176.68 13.1947 176.68 13.941V23.3706C176.68 24.3204 176.814 24.9648 177.082 25.304C177.372 25.6432 177.841 25.8128 178.489 25.8128V26.5251C178.087 26.5025 177.495 26.4799 176.714 26.4573C175.955 26.4121 175.162 26.3894 174.336 26.3894C173.487 26.3894 172.616 26.4121 171.723 26.4573C170.83 26.4799 170.16 26.5025 169.714 26.5251V25.8128C170.495 25.8128 171.042 25.6432 171.355 25.304C171.69 24.9648 171.857 24.3204 171.857 23.3706V12.6859C171.857 11.6683 171.701 10.9221 171.388 10.4472C171.098 9.94975 170.54 9.70101 169.714 9.70101V8.98869C170.428 9.05653 171.12 9.09045 171.79 9.09045C172.728 9.09045 173.599 9.05653 174.403 8.98869C175.229 8.89824 175.988 8.77387 176.68 8.61558V11.6683C177.238 10.5151 177.998 9.70101 178.958 9.22613C179.918 8.75126 180.99 8.51382 182.173 8.51382Z" fill="white"/>
<path d="M194.641 0.237438C195.579 0.237438 196.316 0.474876 196.852 0.949751C197.41 1.40201 197.689 2.03518 197.689 2.84925C197.689 3.66332 197.41 4.30779 196.852 4.78266C196.316 5.23493 195.579 5.46106 194.641 5.46106C193.703 5.46106 192.955 5.23493 192.397 4.78266C191.861 4.30779 191.593 3.66332 191.593 2.84925C191.593 2.03518 191.861 1.40201 192.397 0.949751C192.955 0.474876 193.703 0.237438 194.641 0.237438ZM197.253 8.61558V23.3706C197.253 24.3204 197.41 24.9648 197.722 25.304C198.057 25.6432 198.616 25.8128 199.397 25.8128V26.5251C198.995 26.5025 198.37 26.4799 197.521 26.4573C196.673 26.4121 195.813 26.3894 194.942 26.3894C194.072 26.3894 193.19 26.4121 192.297 26.4573C191.403 26.4799 190.734 26.5025 190.287 26.5251V25.8128C191.068 25.8128 191.616 25.6432 191.928 25.304C192.263 24.9648 192.431 24.3204 192.431 23.3706V12.6859C192.431 11.6683 192.274 10.9221 191.962 10.4472C191.671 9.94975 191.113 9.70101 190.287 9.70101V8.98869C191.001 9.05653 191.694 9.09045 192.364 9.09045C193.301 9.09045 194.172 9.05653 194.976 8.98869C195.802 8.89824 196.561 8.77387 197.253 8.61558Z" fill="white"/>
<path d="M208.287 8.98869V9.70101C207.84 9.70101 207.506 9.80276 207.282 10.0063C207.081 10.2098 207.092 10.4925 207.316 10.8543L216.124 24.1168C216.392 24.5239 216.671 24.897 216.962 25.2362C217.274 25.5528 217.62 25.745 218 25.8128V26.5251C217.665 26.5025 217.152 26.4799 216.459 26.4573C215.789 26.4121 215.108 26.3894 214.416 26.3894C213.612 26.3894 212.786 26.4121 211.938 26.4573C211.089 26.4799 210.464 26.5025 210.062 26.5251V25.8128C210.509 25.8128 210.833 25.7111 211.033 25.5075C211.257 25.304 211.257 25.0214 211.033 24.6595L202.225 11.397C201.845 10.8317 201.521 10.4246 201.254 10.1759C201.008 9.90452 200.706 9.74623 200.349 9.70101V8.98869C200.729 9.01131 201.298 9.04523 202.057 9.09045C202.817 9.11307 203.576 9.12437 204.335 9.12437C205.072 9.12437 205.82 9.11307 206.579 9.09045C207.338 9.04523 207.907 9.01131 208.287 8.98869ZM207.517 18.3505C207.517 18.3505 207.528 18.4183 207.55 18.554C207.595 18.6897 207.628 18.8254 207.651 18.9611C207.695 19.0967 207.718 19.1646 207.718 19.1646L206.378 20.8945C205.708 21.7764 205.34 22.5905 205.273 23.3367C205.206 24.0603 205.395 24.6482 205.842 25.1005C206.289 25.5302 206.903 25.7789 207.684 25.8467V26.5251C207.26 26.5025 206.735 26.4912 206.11 26.4912C205.507 26.4686 204.915 26.4573 204.335 26.4573C203.754 26.4347 203.263 26.4234 202.861 26.4234C202.37 26.4234 201.935 26.4347 201.555 26.4573C201.198 26.4573 200.852 26.4799 200.517 26.5251V25.8467C201.03 25.6432 201.521 25.3492 201.99 24.9648C202.459 24.5578 202.984 23.9812 203.565 23.2349L207.517 18.3505ZM217.029 8.98869V9.66709C216.56 9.80276 216.069 10.0967 215.555 10.549C215.041 11.0013 214.506 11.5779 213.947 12.2789L210.263 16.9598C210.263 16.9598 210.241 16.9033 210.196 16.7902C210.174 16.6545 210.14 16.5188 210.096 16.3832C210.073 16.2475 210.062 16.1796 210.062 16.1796L211.737 13.907C212.34 13.1156 212.708 12.4146 212.842 11.804C212.976 11.1935 212.876 10.696 212.541 10.3116C212.228 9.92714 211.67 9.71231 210.866 9.66709V8.98869C211.514 9.01131 212.172 9.03392 212.842 9.05653C213.512 9.07915 214.115 9.09045 214.651 9.09045C215.164 9.09045 215.611 9.07915 215.99 9.05653C216.37 9.03392 216.716 9.01131 217.029 8.98869Z" fill="white"/>
</g>
</g>
</svg>
